<svg width="80" height="81" viewBox="0 0 80 81" fill="none" xmlns="http://www.w3.org/2000/svg">
<path d="M40 7.0105C27.1 7.0105 16.6667 17.4438 16.6667 30.3438C16.6667 36.1438 18.3333 41.5772 21.3667 46.4772C24.5333 51.6105 28.7 56.0105 31.9 61.1438C33.4667 63.6438 34.6 65.9772 35.8 68.6772C36.6667 70.5105 37.3667 73.6772 40 73.6772C42.6333 73.6772 43.3333 70.5105 44.1667 68.6772C45.4 65.9772 46.5 63.6438 48.0667 61.1438C51.2667 56.0438 55.4333 51.6438 58.6 46.4772C61.6667 41.5772 63.3333 36.1438 63.3333 30.3438C63.3333 17.4438 52.9 7.0105 40 7.0105Z" fill="#1E4BD2"/>
<path d="M26.8967 35.3438H24.9279L28.5125 25.1619H30.7894L34.3789 35.3438H32.4102L29.6907 27.25H29.6112L26.8967 35.3438ZM26.9613 31.3516H32.3306V32.8331H26.9613V31.3516ZM34.0421 26.7081V25.1619H42.1657V26.7081H39.0187V35.3438H37.1891V26.7081H34.0421ZM43.7317 25.1619H45.9888L49.0116 32.5398H49.1309L52.1536 25.1619H54.4107V35.3438H52.6408V28.3487H52.5464L49.7324 35.3139H48.41L45.5961 28.3338H45.5016V35.3438H43.7317V25.1619Z" fill="white"/>
</svg>
