<svg width="24" height="24" viewBox="0 0 24 24" fill="none" xmlns="http://www.w3.org/2000/svg">
<g id=".left-icon">
<path id="Vector" d="M12.7502 21.75C12.65 21.75 12.5509 21.73 12.4586 21.6911C12.3663 21.6522 12.2827 21.5952 12.2128 21.5234C12.1429 21.4517 12.088 21.3667 12.0515 21.2734C12.015 21.1801 11.9976 21.0805 12.0002 20.9803V12.3811C12.0002 12.2816 11.9607 12.1863 11.8904 12.1159C11.82 12.0456 11.7246 12.0061 11.6252 12.0061H3.01941C2.86167 12.008 2.70721 11.961 2.57721 11.8716C2.44722 11.7822 2.34805 11.6548 2.29332 11.5069C2.23099 11.3304 2.23687 11.1371 2.30981 10.9647C2.38275 10.7924 2.51747 10.6536 2.68754 10.5755L20.6875 2.31844C20.8266 2.25472 20.9818 2.23505 21.1324 2.26206C21.283 2.28908 21.4217 2.36148 21.5299 2.46957C21.6381 2.57766 21.7107 2.71626 21.738 2.86679C21.7652 3.01731 21.7457 3.17257 21.6822 3.31172L13.4322 21.3117C13.3725 21.4424 13.2764 21.5533 13.1555 21.631C13.0346 21.7087 12.8939 21.75 12.7502 21.75Z" fill="#0A2896"/>
</g>
</svg>
